<?xml version="1.0" encoding="UTF-8"?>
<svg width="612px" height="406px" viewBox="0 0 612 406" version="1.1" xmlns="http://www.w3.org/2000/svg" xmlns:xlink="http://www.w3.org/1999/xlink">
    <!-- Generator: Sketch 49.3 (51167) - http://www.bohemiancoding.com/sketch -->
    <title>Shape</title>
    <desc>Created with Sketch.</desc>
    <defs></defs>
    <g id="Page-1" stroke="none" stroke-width="1" fill="none" fill-rule="evenodd">
        <g id="pushowl-logo-icon" fill="#3D4250" fill-rule="nonzero">
            <path d="M290.399,244.5 C290.407,244.487 290.417,244.475 290.425,244.463 C281.415919,227.752396 275.092259,209.728328 271.686,191.052 C256.97154,241.409934 210.794671,276.019671 158.331,276.012 C93.113,276.012 40.031,223.155 40.031,157.983 C40.031,92.811 93.112,39.954 158.331,39.954 C210.795227,39.9447365 256.973495,74.5537924 271.689,124.912 C275.095424,106.236033 281.419078,88.21232 290.428,71.502 C262.18,28.562 214.099,0.002 158.851,0.002 L0.031,0.002 C21.1833398,27.95465 25.9176202,65.0310278 12.468,97.402 C4.34868374,116.572405 0.113912927,137.163337 0.009,157.982 C0.009,245.109 71.094,315.77 158.328,315.77 C178.030506,315.784512 197.560783,312.101787 215.905,304.913 C215.705,304.989 215.526,305.086 215.33,305.162 C236.1,343.028 266.746,377.252 304.871,405.987 C335.519,382.879 361.365,356.22 381.027,326.978 C342.276266,310.655663 310.289911,281.545779 290.399,244.5 Z M115.889498,174.074 L140.803,174.074 C140.803,167.984408 144.051758,162.357392 149.3255,159.312596 C154.599241,156.2678 161.096759,156.2678 166.3705,159.312596 C171.644242,162.357392 174.893,167.984408 174.893,174.074 L199.805502,174.074 C199.878419,159.035232 191.89746,145.107316 178.885603,137.566658 C165.873747,130.026 149.821253,130.026 136.809397,137.566658 C123.79754,145.107316 115.816581,159.035232 115.889498,174.074 Z M598.904,98.417 C598.871,98.331 598.84,98.252 598.804,98.171 C585.099941,65.6057982 589.757657,28.2088369 611.031,-5.68434189e-14 L452.797,-5.68434189e-14 C365.337,0.005 294.031,70.911 294.031,158.1 C294.031,245.289 364.882,316 452.346,316 C539.762,316 611.056,245.288 611.056,158.1 C610.952243,137.60287 606.823422,117.32571 598.904,98.42 L598.904,98.417 Z M452.346,276.212 C386.955,276.212 333.923,223.317 333.923,158.098 C333.923,92.879 386.955,39.983 452.346,39.983 C517.737,39.983 571.046,92.883 571.046,158.098 C571.046,223.313 517.731,276.212 452.346,276.212 Z M452.031,132.01 C428.838555,132.01497 410.039999,150.817555 410.04,174.01 L434.972,174.01 C434.9251,167.884467 438.166135,162.204065 443.463324,159.12768 C448.760513,156.051294 455.300487,156.051294 460.597676,159.12768 C465.894865,162.204065 469.1359,167.884467 469.089,174.01 L494.021,174.01 C494.021001,150.817945 475.223054,132.015522 452.031,132.01 Z" id="Shape"></path>
        </g>
    </g>
</svg>