<svg id="Layer_1" data-name="Layer 1" xmlns="http://www.w3.org/2000/svg" xmlns:xlink="http://www.w3.org/1999/xlink" viewBox="0 0 834.9 195.28"><defs><style>.cls-1,.cls-4{fill:none;}.cls-2{fill:#f5f6f6;}.cls-3{clip-path:url(#clip-path);}.cls-4{stroke:#505150;stroke-miterlimit:10;stroke-width:3px;}.cls-5{fill:#0c7ab7;}.cls-6,.cls-7,.cls-10{fill:#fff;}.cls-7{font-size:44px;font-family:GillSansMT, Gill Sans MT;}.cls-8{letter-spacing:-0.14em;}.cls-9{letter-spacing:-0.13em;}</style><clipPath id="clip-path" transform="translate(-18.88 -15)"><rect class="cls-1" x="19" y="15" width="834.88" height="185"/></clipPath></defs><title>VectorLogo-TrustintoSales</title><path class="cls-2" d="M36.73,16.83a58.59,58.59,0,0,1,6.3-.3H149.45c5.33,0,10.73-.07,16.13,0,9.07.15,17.4,8.85,17.18,17.93V161.88s-1.28,12.68-16.65,14H127.63l-20.55,21.45a5.09,5.09,0,0,1-6.38,0L79.7,176h-43s-14.92-.22-16.35-17.1V33.56c0-5.4,3.38-10.43,7.57-13.5a18,18,0,0,1,8.78-3.23" transform="translate(-18.88 -15)"/><g class="cls-3"><path class="cls-4" d="M36.73,16.83a58.59,58.59,0,0,1,6.3-.3H149.45c5.33,0,10.73-.07,16.13,0,9.07.15,17.4,8.85,17.18,17.93V161.88s-1.28,12.68-16.65,14H127.63l-20.55,21.45a5.09,5.09,0,0,1-6.38,0L79.7,176h-43s-14.92-.22-16.35-17.1V33.56c0-5.4,3.38-10.43,7.57-13.5a18,18,0,0,1,8.78-3.23Zm0,0" transform="translate(-18.88 -15)"/></g><path class="cls-5" d="M169.63,77.51l-47.55-4.58-18.9-38.47L84.58,73.91,36.65,77.13l37.5,31.28L63.06,155l40.05-23.47L144.51,155l-11.7-46.27Zm-38.1,1.27c-20.85,18.6-30.3,42.38-30.3,42.38-1,4.57-3.6,2.92-3.6,2.92-2.4-5.92-6.6-11.1-10.87-15.9-2-2.25-8.4-6.45-5-9.9,4.13-4.27,13.8,6.3,15.6,4.28C112.63,85.31,125,76.16,125,76.16c8.85-2,6.52,2.62,6.52,2.62" transform="translate(-18.88 -15)"/><path class="cls-6" d="M298.78,47.58V65.06H269.23v81H248.45v-81h-29.7V47.58Zm0,0" transform="translate(-18.88 -15)"/><path class="cls-6" d="M342.43,71.58c.22,0,.83.08,1.65.08v19.5c-1.2-.15-2.25-.23-3.22-.3s-1.73-.08-2.25-.08c-7.66,0-12.83,2.48-15.46,7.5-1.5,2.78-2.17,7.13-2.17,13v34.8h-19.2V73.23H320V85.91c2.92-4.88,5.55-8.18,7.72-10q5.4-4.5,13.95-4.5a4.88,4.88,0,0,0,.75.15" transform="translate(-18.88 -15)"/><path class="cls-6" d="M374.31,73.23v43.88c0,4.12.52,7.27,1.5,9.37,1.72,3.68,5.09,5.55,10.2,5.55,6.52,0,10.94-2.62,13.35-7.87,1.27-2.85,1.87-6.6,1.87-11.33V73.23h19.35v72.83H402V135.78l-1.35,2a11.91,11.91,0,0,1-2.55,2.92,26.19,26.19,0,0,1-8.63,5.48,29.81,29.81,0,0,1-9.82,1.5c-10.8,0-18.07-3.9-21.75-11.63q-3.15-6.41-3.15-18.9V73.31h19.58Zm0,0" transform="translate(-18.88 -15)"/><path class="cls-6" d="M453.88,122.81c.37,3.37,1.27,5.77,2.62,7.2,2.4,2.55,6.75,3.82,13.2,3.82a20.24,20.24,0,0,0,9-1.65,5.28,5.28,0,0,0,3.31-5,5.37,5.37,0,0,0-2.7-4.88c-1.8-1.12-8.48-3-19.95-5.77q-12.5-3-17.55-7.65c-3.38-3-5.11-7.43-5.11-13.13a22.49,22.49,0,0,1,7.95-17.32c5.33-4.8,12.75-7.28,22.43-7.28,9.15,0,16.57,1.8,22.35,5.48s9.08,9.9,9.9,18.82H480.2a11.85,11.85,0,0,0-2.09-5.85c-2.1-2.55-5.71-3.9-10.73-3.9-4.2,0-7.13.68-8.93,1.95a5.42,5.42,0,0,0-2.62,4.58,5,5,0,0,0,2.85,4.72c1.88,1,8.55,2.78,19.95,5.25,7.57,1.8,13.35,4.5,17.1,8.1A18.45,18.45,0,0,1,501.36,124a22.2,22.2,0,0,1-8.1,17.7c-5.4,4.57-13.73,6.82-25.06,6.82s-20-2.4-25.5-7.27a23.59,23.59,0,0,1-8.25-18.45Zm0,0" transform="translate(-18.88 -15)"/><path class="cls-6" d="M507.88,87.48V73.91h10.2V53.58H537V73.91h11.85V87.48H537V126c0,3,.38,4.87,1.13,5.55s3.07,1.12,7,1.12H547c.68,0,1.28-.07,1.88-.07v14.25l-9.07.3c-9,.3-15.23-1.28-18.53-4.65-2.17-2.18-3.22-5.55-3.22-10.13V87.48Zm0,0" transform="translate(-18.88 -15)"/><path class="cls-10" d="M577.56,115.68c.67,4.5,1.87,7.88,3.75,10.13q5.18,6.08,17.55,6.07a38.28,38.28,0,0,0,12.07-1.57c5.85-2,8.85-5.85,8.85-11.4a8.43,8.43,0,0,0-4.35-7.58c-2.85-1.72-7.42-3.3-13.73-4.57L591,104.43c-10.5-2.32-17.7-4.8-21.67-7.57-6.68-4.58-10-11.63-10-21.3a28.2,28.2,0,0,1,9.75-22c6.53-5.85,16-8.77,28.73-8.77,10.5,0,19.5,2.77,27,8.25s11.32,13.5,11.7,23.92H616.63c-.37-5.92-3-10.12-8-12.6a27.42,27.42,0,0,0-12.3-2.47c-5.48,0-9.82,1.05-13,3.22a10.22,10.22,0,0,0-4.88,8.93,8.37,8.37,0,0,0,4.81,7.87c2,1.13,6.44,2.55,13.12,4l17.32,4c7.58,1.8,13.28,4.2,17.11,7.13,5.92,4.65,8.84,11.32,8.84,20.1a28.21,28.21,0,0,1-10.5,22.42c-7,5.93-16.79,8.93-29.54,8.93-13,0-23.25-2.93-30.68-8.78S557.76,126,557.76,115.68Zm0,0" transform="translate(-18.88 -15)"/><path class="cls-10" d="M714.13,81c5.93,6.3,8.93,15.53,8.93,27.68,0,12.82-2.93,22.57-8.7,29.32a28.43,28.43,0,0,1-22.5,10.13c-5.85,0-10.73-1.43-14.55-4.35a28.19,28.19,0,0,1-6.23-7.05v38h-18.9V73.23h18.3V84a33,33,0,0,1,6.6-7.5,24.61,24.61,0,0,1,15.23-4.88A29.6,29.6,0,0,1,714.13,81m-14.7,13.73c-2.62-4.35-6.82-6.45-12.6-6.45-7,0-11.77,3.3-14.4,9.82a36.73,36.73,0,0,0-2,13.2c0,8.48,2.25,14.4,6.83,17.85a15.53,15.53,0,0,0,9.6,3c5.4,0,9.45-2,12.3-6.15s4.2-9.52,4.2-16.35a28.18,28.18,0,0,0-3.9-14.92" transform="translate(-18.88 -15)"/><path class="cls-10" d="M797.45,137.21c-6.14,7.57-15.52,11.4-28.05,11.4s-21.89-3.83-28-11.4-9.23-16.73-9.23-27.38a42.43,42.43,0,0,1,9.23-27.3c6.15-7.72,15.52-11.55,28-11.55s21.91,3.83,28.05,11.55a42.43,42.43,0,0,1,9.23,27.3c0,10.65-3.07,19.73-9.23,27.38m-15.3-10.58q4.5-6,4.5-16.87t-4.5-16.88c-3-3.9-7.27-5.92-12.89-5.92s-9.9,2-12.9,5.92-4.5,9.53-4.5,16.88,1.5,12.9,4.5,16.87,7.34,5.93,12.9,5.93,9.89-1.95,12.89-5.93" transform="translate(-18.88 -15)"/><path class="cls-10" d="M812.83,87.48V73.91H823V53.58h18.9V73.91h11.85V87.48H841.93V126c0,3,.38,4.87,1.13,5.55s3.07,1.12,7,1.12h1.87c.68,0,1.28-.07,1.88-.07v14.25l-9.08.3c-9,.3-15.22-1.28-18.52-4.65-2.17-2.18-3.23-5.55-3.23-10.13V87.48Zm0,0" transform="translate(-18.88 -15)"/><text class="cls-7" transform="translate(224.89 182.86)"><tspan class="cls-8">T</tspan><tspan x="20.41" y="0">urn</tspan><tspan class="cls-9" x="81.83" y="0" xml:space="preserve"> T</tspan><tspan x="109.63" y="0">rust into Sales™</tspan></text></svg>