<?xml version="1.0" encoding="UTF-8"?>
<svg width="794px" height="209px" viewBox="0 0 794 209" version="1.1" xmlns="http://www.w3.org/2000/svg" xmlns:xlink="http://www.w3.org/1999/xlink">
    <!-- Generator: Sketch 52.5 (67469) - http://www.bohemiancoding.com/sketch -->
    <title>recharge-horiz-full_color</title>
    <desc>Created with Sketch.</desc>
    <g id="Page-1" stroke="none" stroke-width="1" fill="none" fill-rule="evenodd">
        <g id="horizontal" transform="translate(-60.000000, -899.000000)">
            <g id="recharge-horiz-full_color" transform="translate(60.000000, 899.000000)">
                <path d="M297.2258,93.9083 C299.4898,91.6443 300.6228,88.6103 300.6228,84.8073 C300.6228,81.0063 299.4898,77.9723 297.2258,75.7073 C294.9598,73.4433 291.6028,72.3093 287.1548,72.3093 L263.8578,72.3093 L263.8578,97.3053 L287.1548,97.3053 C291.6028,97.3053 294.9598,96.1743 297.2258,93.9083 Z M318.3388,144.8713 L301.1088,144.8713 L283.6358,110.8953 L263.8578,110.8953 L263.8578,144.8713 L249.1748,144.8713 L249.1748,58.7203 L287.0338,58.7203 C296.2548,58.7203 303.2928,61.1063 308.1468,65.8783 C312.9998,70.6523 315.4268,76.9623 315.4268,84.8073 C315.4268,90.7133 314.0108,95.7893 311.1798,100.0363 C308.3478,104.2823 304.1428,107.2973 298.5608,109.0753 L318.3388,144.8713 Z" id="Fill-1" fill="#424242"></path>
                <path d="M351.3517,92.2091 C346.8207,92.2091 343.0587,93.5441 340.0667,96.2141 C337.0737,98.8831 335.2127,102.4431 334.4857,106.8921 L367.9747,106.8921 C367.3267,102.4431 365.5477,98.8831 362.6357,96.2141 C359.7237,93.5441 355.9617,92.2091 351.3517,92.2091 Z M382.1717,117.5691 L334.2427,117.5691 C334.8077,122.5861 336.6277,126.5691 339.7037,129.5221 C342.7767,132.4761 346.8207,133.9501 351.8367,133.9501 C355.1527,133.9501 358.1467,133.1431 360.8167,131.5231 C363.4857,129.9061 365.3847,127.7231 366.5187,124.9721 L381.0807,124.9721 C379.1387,131.3621 375.5177,136.5201 370.2197,140.4421 C364.9207,144.3671 358.6717,146.3271 351.4727,146.3271 C342.0877,146.3271 334.5037,143.2141 328.7217,136.9841 C322.9367,130.7561 320.0457,122.8681 320.0457,113.3221 C320.0457,104.0221 322.9577,96.2141 328.7827,89.9041 C334.6067,83.5941 342.1297,80.4391 351.3517,80.4391 C360.5737,80.4391 368.0367,83.5331 373.7387,89.7221 C379.4417,95.9101 382.2927,103.6971 382.2927,113.0801 L382.1717,117.5691 Z" id="Fill-3" fill="#424242"></path>
                <path d="M496.0627,53.8654 L496.0627,88.6904 C499.8647,83.1904 505.9707,80.4394 514.3847,80.4394 C521.8277,80.4394 527.5907,82.7054 531.6757,87.2344 C535.7597,91.7654 537.8037,97.7914 537.8037,105.3144 L537.8037,144.8714 L523.3647,144.8714 L523.3647,107.1344 C523.3647,102.6864 522.3337,99.1864 520.2707,96.6384 C518.2077,94.0904 515.0717,92.8164 510.8667,92.8164 C506.2557,92.8164 502.6337,94.1924 500.0057,96.9414 C497.3767,99.6924 496.0627,103.5364 496.0627,108.4694 L496.0627,144.8714 L481.6237,144.8714 L481.6237,53.8654 L496.0627,53.8654 Z" id="Fill-5" fill="#424242"></path>
                <path d="M590.4113,115.3663 L573.6853,117.9523 C565.8243,119.1563 561.8963,122.1253 561.8963,126.8573 C561.8963,132.3143 565.6163,135.0433 573.0593,135.0433 C578.6413,135.0433 582.9283,133.5533 585.9223,130.5773 C588.9133,127.6003 590.4113,123.8583 590.4113,119.3493 L590.4113,115.3663 Z M570.1473,146.3273 C562.7043,146.3273 557.1643,144.5893 553.5233,141.1093 C549.8843,137.6333 548.0633,133.0213 548.0633,127.2763 C548.0733,116.3453 556.1373,109.7253 572.2523,107.4223 L590.4113,104.8293 L590.4113,103.8583 C590.4113,96.1743 585.9223,92.3313 576.9423,92.3313 C569.0953,92.3313 564.6453,95.4453 563.5953,101.6743 L549.5193,101.6743 C550.1663,95.5273 552.7353,90.4503 557.2243,86.4453 C561.7143,82.4413 568.4073,80.4393 577.3073,80.4393 C586.2853,80.4393 593.0593,82.5023 597.6313,86.6283 C602.2003,90.7533 604.4863,96.5383 604.4863,103.9793 L604.4863,132.9793 C604.4863,138.0763 605.0943,142.0403 606.3073,144.8713 L592.5963,144.8713 C592.5143,144.8713 592.4133,144.5673 592.2923,143.9613 C592.1713,143.3543 592.0493,142.3643 591.9283,140.9883 C591.8073,139.6133 591.7463,138.1573 591.7463,136.6203 C587.4573,143.0933 580.2593,146.3273 570.1473,146.3273 Z" id="Fill-7" fill="#424242"></path>
                <path d="M652.3615,81.4103 L652.3615,94.8793 C651.2275,94.7183 650.1355,94.6363 649.0855,94.6363 C638.2445,94.6363 632.8255,100.4603 632.8255,112.1093 L632.8255,144.8713 L618.3855,144.8713 L618.3855,81.8953 L631.7335,81.8953 L631.7335,90.6323 C635.2925,84.4033 641.4805,81.2893 650.2985,81.2893 L652.3615,81.4103 Z" id="Fill-9" fill="#424242"></path>
                <path d="M707.301,112.2306 C707.301,106.6486 705.682,102.0796 702.447,98.5186 C699.211,94.9596 694.964,93.1796 689.706,93.1796 C684.529,93.1796 680.322,94.9596 677.087,98.5186 C673.851,102.0796 672.234,106.6486 672.234,112.2306 C672.234,117.7326 673.851,122.2836 677.087,125.8806 C680.322,129.4816 684.529,131.2816 689.706,131.2816 C694.964,131.2816 699.211,129.4816 702.447,125.8806 C705.682,122.2836 707.301,117.7326 707.301,112.2306 M707.786,90.8756 L707.786,81.8956 L721.134,81.8956 L721.134,142.2016 C721.134,150.7756 718.483,157.7936 713.186,163.2536 C707.887,168.7146 700.506,171.4446 691.041,171.4446 C682.384,171.4446 675.61,169.2186 670.717,164.7706 C665.822,160.3216 662.97,155.2246 662.162,149.4826 L676.602,149.4826 C678.38,155.8716 683.276,159.0686 691.283,159.0686 C696.137,159.0686 699.918,157.7116 702.629,155.0026 C705.338,152.2926 706.694,148.6726 706.694,144.1426 L706.694,134.3146 C702.487,140.7876 695.853,144.0216 686.794,144.0216 C678.058,144.0216 671.039,140.9686 665.741,134.8606 C660.443,128.7536 657.794,121.2096 657.794,112.2306 C657.794,103.2516 660.443,95.7096 665.741,89.6006 C671.039,83.4936 678.058,80.4396 686.794,80.4396 C696.42,80.4396 703.418,83.9186 707.786,90.8756" id="Fill-11" fill="#424242"></path>
                <path d="M762.092,92.2091 C757.561,92.2091 753.799,93.5441 750.807,96.2141 C747.814,98.8831 745.953,102.4431 745.226,106.8921 L778.715,106.8921 C778.067,102.4431 776.288,98.8831 773.376,96.2141 C770.464,93.5441 766.702,92.2091 762.092,92.2091 Z M792.912,117.5691 L744.983,117.5691 C745.548,122.5861 747.368,126.5691 750.444,129.5221 C753.517,132.4761 757.561,133.9501 762.577,133.9501 C765.893,133.9501 768.887,133.1431 771.557,131.5231 C774.226,129.9061 776.125,127.7231 777.259,124.9721 L791.821,124.9721 C789.879,131.3621 786.258,136.5201 780.96,140.4421 C775.661,144.3671 769.412,146.3271 762.213,146.3271 C752.828,146.3271 745.244,143.2141 739.462,136.9841 C733.677,130.7561 730.786,122.8681 730.786,113.3221 C730.786,104.0221 733.698,96.2141 739.523,89.9041 C745.347,83.5941 752.87,80.4391 762.092,80.4391 C771.314,80.4391 778.777,83.5331 784.479,89.7221 C790.182,95.9101 793.033,103.6971 793.033,113.0801 L792.912,117.5691 Z" id="Fill-13" fill="#424242"></path>
                <path d="M450.6555,127.9894 C446.0525,131.4104 440.4535,133.1204 433.8555,133.1204 C425.2205,133.1204 418.4395,130.3104 413.5115,124.6904 C408.5825,119.0694 406.1195,111.5364 406.1195,102.0864 C406.1195,92.6384 408.5825,85.1234 413.5115,79.5434 C418.4395,73.9654 425.2205,71.1744 433.8555,71.1744 C440.4535,71.1744 446.0525,72.8844 450.6555,76.3054 C454.4785,79.1484 457.2205,82.8914 458.8805,87.5334 L472.4595,80.2164 C469.9795,74.6244 466.3165,69.9004 461.4685,66.0424 C453.8935,60.0154 444.6875,57.0004 433.8555,57.0004 C421.1485,57.0004 410.7425,61.1974 402.6375,69.5854 C394.5315,77.9764 390.4805,88.8104 390.4805,102.0864 C390.4805,115.4464 394.5315,126.3204 402.6375,134.7094 C410.7425,143.0994 421.1485,147.2944 433.8555,147.2944 C444.6875,147.2944 453.8935,144.2814 461.4685,138.2524 C465.8305,134.7824 469.2445,130.5884 471.6885,125.7134 L458.2065,118.4484 C456.5175,122.3184 454.0035,125.5004 450.6555,127.9894" id="Fill-15" fill="#424242"></path>
                <g id="Group-21" transform="translate(0.000000, 0.038000)" fill="#53BAD3">
                    <path d="M104.0695,50.3396 C89.2415,58.0786 74.4555,65.7976 59.5235,73.5906 C64.1645,76.2206 68.6005,78.7336 73.0325,81.2446 C87.1205,72.8966 101.1235,64.5986 115.2705,56.2146 C111.4635,54.2176 107.8055,52.2986 104.0695,50.3396 Z M148.3925,73.5546 C141.7815,70.0926 135.3025,66.6996 128.8415,63.3166 C114.5865,71.7656 100.3945,80.1756 86.0875,88.6546 C92.1925,92.1156 98.1215,95.4766 104.0275,98.8236 C118.8455,90.3836 133.5695,81.9976 148.3925,73.5546 Z M99.9295,105.7926 C93.9975,102.4306 88.0815,99.0776 81.9815,95.6196 L81.9815,113.9846 C77.5585,111.4796 73.2835,109.0566 68.9945,106.6276 L68.9945,88.2526 C64.4115,85.6526 59.8415,83.0616 55.2565,80.4606 L55.2565,133.6296 C70.1855,142.0196 85.0075,150.3486 99.9295,158.7336 L99.9295,105.7926 Z M152.8415,133.4416 L152.8415,80.3236 C137.7855,88.8976 122.9075,97.3706 108.1045,105.8016 L108.1045,159.0866 C123.1345,150.4706 138.0465,141.9226 152.8415,133.4416 Z M47.1725,70.9196 C66.0715,61.0556 85.0465,51.1526 104.0735,41.2216 C122.9815,51.1246 141.8855,61.0246 160.9095,70.9876 L160.9095,138.1306 C142.2025,148.8556 123.3335,159.6726 104.4095,170.5216 C85.3625,159.8176 66.3205,149.1166 47.1725,138.3566 L47.1725,70.9196 Z" id="Fill-17"></path>
                    <path d="M160.488,17.5891 C158.688,13.2541 156.959,9.0931 155.182,4.8131 C157.956,3.6561 160.696,2.5131 163.557,1.3201 C168.072,12.1751 172.557,22.9571 177.077,33.8221 C165.665,34.7791 154.39,35.7251 142.967,36.6831 C142.719,33.6931 142.473,30.7351 142.217,27.6451 C147.157,27.2251 151.995,26.8151 156.832,26.4041 C144.615,17.9271 131.147,12.6641 116.448,10.8661 C89.681,7.5921 65.483,14.1261 44.445,31.0731 C2.983,64.4731 -2.33,124.4341 30.503,164.7391 C64.503,206.4781 128.513,212.4331 169.621,173.1651 C171.693,175.3201 173.765,177.4761 175.838,179.6321 C142.171,212.7431 85.348,220.0261 42.371,188.4101 C-1.366,156.2341 -13.01,95.8661 15.801,49.9411 C31.138,25.4911 53.08,9.8021 81.282,3.5091 C109.448,-2.7759 135.834,2.2701 160.488,17.5891" id="Fill-19"></path>
                </g>
            </g>
        </g>
    </g>
</svg>